<svg xmlns="http://www.w3.org/2000/svg" xmlns:xlink="http://www.w3.org/1999/xlink" id="processonSvg1000" viewBox="46.0 23.0 801.0 383.29126213592235" width="801.0" height="383.29126213592235"><defs id="ProcessOnDefs1001"><marker id="ProcessOnMarker1007" markerUnits="userSpaceOnUse" orient="auto" markerWidth="16.23606797749979" markerHeight="10.550836550532098" viewBox="-1.0 -1.3763819204711736 16.23606797749979 10.550836550532098" refX="-1.0" refY="3.8990363547948754"><path id="ProcessOnPath1008" d="M12.0 3.8990363547948754L0.0 7.798072709589751V0.0Z" stroke="#323232" stroke-width="2.0" fill="#323232" transform="matrix(1.0,0.0,0.0,1.0,0.0,0.0)"/></marker><marker id="ProcessOnMarker1011" markerUnits="userSpaceOnUse" orient="auto" markerWidth="16.23606797749979" markerHeight="10.550836550532098" viewBox="-1.0 -1.3763819204711736 16.23606797749979 10.550836550532098" refX="-1.0" refY="3.8990363547948754"><path id="ProcessOnPath1012" d="M12.0 3.8990363547948754L0.0 7.798072709589751V0.0Z" stroke="#323232" stroke-width="2.0" fill="#323232" transform="matrix(1.0,0.0,0.0,1.0,0.0,0.0)"/></marker><marker id="ProcessOnMarker1015" markerUnits="userSpaceOnUse" orient="auto" markerWidth="16.23606797749979" markerHeight="10.550836550532098" viewBox="-1.0 -1.3763819204711736 16.23606797749979 10.550836550532098" refX="-1.0" refY="3.8990363547948754"><path id="ProcessOnPath1016" d="M12.0 3.8990363547948754L0.0 7.798072709589751V0.0Z" stroke="#323232" stroke-width="2.0" fill="#323232" transform="matrix(1.0,0.0,0.0,1.0,0.0,0.0)"/></marker><marker id="ProcessOnMarker1019" markerUnits="userSpaceOnUse" orient="auto" markerWidth="16.23606797749979" markerHeight="10.550836550532098" viewBox="-1.0 -1.3763819204711736 16.23606797749979 10.550836550532098" refX="-1.0" refY="3.8990363547948754"><path id="ProcessOnPath1020" d="M12.0 3.8990363547948754L0.0 7.798072709589751V0.0Z" stroke="#323232" stroke-width="2.0" fill="#323232" transform="matrix(1.0,0.0,0.0,1.0,0.0,0.0)"/></marker><marker id="ProcessOnMarker1035" markerUnits="userSpaceOnUse" orient="auto" markerWidth="16.23606797749979" markerHeight="10.550836550532098" viewBox="-1.0 -1.3763819204711736 16.23606797749979 10.550836550532098" refX="-1.0" refY="3.8990363547948754"><path id="ProcessOnPath1036" d="M12.0 3.8990363547948754L0.0 7.798072709589751V0.0Z" stroke="#323232" stroke-width="2.0" fill="#323232" transform="matrix(1.0,0.0,0.0,1.0,0.0,0.0)"/></marker><marker id="ProcessOnMarker1047" markerUnits="userSpaceOnUse" orient="auto" markerWidth="16.23606797749979" markerHeight="10.550836550532098" viewBox="-1.0 -1.3763819204711736 16.23606797749979 10.550836550532098" refX="-1.0" refY="3.8990363547948754"><path id="ProcessOnPath1048" d="M12.0 3.8990363547948754L0.0 7.798072709589751V0.0Z" stroke="#323232" stroke-width="2.0" fill="#323232" transform="matrix(1.0,0.0,0.0,1.0,0.0,0.0)"/></marker><marker id="ProcessOnMarker1061" markerUnits="userSpaceOnUse" orient="auto" markerWidth="16.23606797749979" markerHeight="10.550836550532098" viewBox="-1.0 -1.3763819204711736 16.23606797749979 10.550836550532098" refX="-1.0" refY="3.8990363547948754"><path id="ProcessOnPath1062" d="M12.0 3.8990363547948754L0.0 7.798072709589751V0.0Z" stroke="#323232" stroke-width="2.0" fill="#323232" transform="matrix(1.0,0.0,0.0,1.0,0.0,0.0)"/></marker><marker id="ProcessOnMarker1084" markerUnits="userSpaceOnUse" orient="auto" markerWidth="16.23606797749979" markerHeight="10.550836550532098" viewBox="-1.0 -1.3763819204711736 16.23606797749979 10.550836550532098" refX="-1.0" refY="3.8990363547948754"><path id="ProcessOnPath1085" d="M12.0 3.8990363547948754L0.0 7.798072709589751V0.0Z" stroke="#323232" stroke-width="2.0" fill="#323232" transform="matrix(1.0,0.0,0.0,1.0,0.0,0.0)"/></marker><marker id="ProcessOnMarker1088" markerUnits="userSpaceOnUse" orient="auto" markerWidth="16.23606797749979" markerHeight="10.550836550532098" viewBox="-1.0 -1.3763819204711736 16.23606797749979 10.550836550532098" refX="-1.0" refY="3.8990363547948754"><path id="ProcessOnPath1089" d="M12.0 3.8990363547948754L0.0 7.798072709589751V0.0Z" stroke="#323232" stroke-width="2.0" fill="#323232" transform="matrix(1.0,0.0,0.0,1.0,0.0,0.0)"/></marker><marker id="ProcessOnMarker1092" markerUnits="userSpaceOnUse" orient="auto" markerWidth="16.23606797749979" markerHeight="10.550836550532098" viewBox="-1.0 -1.3763819204711736 16.23606797749979 10.550836550532098" refX="-1.0" refY="3.8990363547948754"><path id="ProcessOnPath1093" d="M12.0 3.8990363547948754L0.0 7.798072709589751V0.0Z" stroke="#323232" stroke-width="2.0" fill="#323232" transform="matrix(1.0,0.0,0.0,1.0,0.0,0.0)"/></marker><marker id="ProcessOnMarker1111" markerUnits="userSpaceOnUse" orient="auto" markerWidth="16.23606797749979" markerHeight="10.550836550532098" viewBox="-1.0 -1.3763819204711736 16.23606797749979 10.550836550532098" refX="-1.0" refY="3.8990363547948754"><path id="ProcessOnPath1112" d="M12.0 3.8990363547948754L0.0 7.798072709589751V0.0Z" stroke="#323232" stroke-width="2.0" fill="#323232" transform="matrix(1.0,0.0,0.0,1.0,0.0,0.0)"/></marker><marker id="ProcessOnMarker1118" markerUnits="userSpaceOnUse" orient="auto" markerWidth="16.23606797749979" markerHeight="10.550836550532098" viewBox="-1.0 -1.3763819204711736 16.23606797749979 10.550836550532098" refX="-1.0" refY="3.8990363547948754"><path id="ProcessOnPath1119" d="M12.0 3.8990363547948754L0.0 7.798072709589751V0.0Z" stroke="#323232" stroke-width="2.0" fill="#323232" transform="matrix(1.0,0.0,0.0,1.0,0.0,0.0)"/></marker><marker id="ProcessOnMarker1122" markerUnits="userSpaceOnUse" orient="auto" markerWidth="16.23606797749979" markerHeight="10.550836550532098" viewBox="-1.0 -1.3763819204711736 16.23606797749979 10.550836550532098" refX="-1.0" refY="3.8990363547948754"><path id="ProcessOnPath1123" d="M12.0 3.8990363547948754L0.0 7.798072709589751V0.0Z" stroke="#323232" stroke-width="2.0" fill="#323232" transform="matrix(1.0,0.0,0.0,1.0,0.0,0.0)"/></marker></defs><g id="ProcessOnG1002"><path id="ProcessOnPath1003" d="M46.0 23.0H847.0V406.29126213592235H46.0V23.0Z" fill="none"/><g id="ProcessOnG1004"><g id="ProcessOnG1005"><path id="ProcessOnPath1006" d="M299.75 346.70873786407765L299.75 270.8543689320388L299.75 270.8543689320388L299.75 210.2360679774998" stroke="#323232" stroke-width="2.0" stroke-dasharray="none" fill="none" marker-end="url(#ProcessOnMarker1007)"/></g><g id="ProcessOnG1009"><path id="ProcessOnPath1010" d="M452.75 346.70873786407765L452.75 270.8543689320388L299.75 270.8543689320388L299.75 210.2360679774998" stroke="#323232" stroke-width="2.0" stroke-dasharray="none" fill="none" marker-end="url(#ProcessOnMarker1011)"/></g><g id="ProcessOnG1013"><path id="ProcessOnPath1014" d="M147.25 346.70873786407765L147.25 270.8543689320388L299.75 270.8543689320388L299.75 210.2360679774998" stroke="#323232" stroke-width="2.0" stroke-dasharray="none" fill="none" marker-end="url(#ProcessOnMarker1015)"/></g><g id="ProcessOnG1017"><path id="ProcessOnPath1018" d="M451.0 123.77669902912622L408.125 123.77669902912622L408.125 178.0L380.4860679774998 178.0" stroke="#323232" stroke-width="2.0" stroke-dasharray="none" fill="none" marker-end="url(#ProcessOnMarker1019)"/></g><g id="ProcessOnG1021" transform="matrix(1.0,0.0,0.0,1.0,451.0,108.63106796116506)" opacity="1.0"><path id="ProcessOnPath1022" d="M0.0 0.0L131.0 0.0L131.0 30.291262135922327L0.0 30.291262135922327Z" stroke="#323232" stroke-width="2.0" stroke-dasharray="none" opacity="1.0" fill="#ffffff"/><g id="ProcessOnG1023" transform="matrix(1.0,0.0,0.0,1.0,10.0,7.020631067961164)"><text id="ProcessOnText1024" fill="#000000" font-size="13" x="54.5" y="13.325" font-family="微软雅黑" font-weight="normal" font-style="normal" text-decoration="none" family="微软雅黑" text-anchor="middle" size="13">Client</text></g></g><g id="ProcessOnG1025" transform="matrix(1.0,0.0,0.0,1.0,452.5,208.70873786407765)" opacity="1.0"><path id="ProcessOnPath1026" d="M0.0 0.0L131.0 0.0L131.0 30.291262135922327L0.0 30.291262135922327Z" stroke="#323232" stroke-width="2.0" stroke-dasharray="none" opacity="1.0" fill="#ffffff"/><g id="ProcessOnG1027" transform="matrix(1.0,0.0,0.0,1.0,10.0,7.020631067961164)"><text id="ProcessOnText1028" fill="#000000" font-size="13" x="54.5" y="13.325" font-family="微软雅黑" font-weight="normal" font-style="normal" text-decoration="none" family="微软雅黑" text-anchor="middle" size="13">host</text></g></g><g id="ProcessOnG1029" transform="matrix(1.0,0.0,0.0,1.0,451.0,43.0)" opacity="1.0"><path id="ProcessOnPath1030" d="M0.0 0.0L131.0 0.0L131.0 30.291262135922327L0.0 30.291262135922327Z" stroke="#323232" stroke-width="2.0" stroke-dasharray="none" opacity="1.0" fill="#ffffff"/><g id="ProcessOnG1031" transform="matrix(1.0,0.0,0.0,1.0,10.0,7.020631067961164)"><text id="ProcessOnText1032" fill="#000000" font-size="13" x="54.5" y="13.325" font-family="微软雅黑" font-weight="normal" font-style="normal" text-decoration="none" family="微软雅黑" text-anchor="middle" size="13">URL + 回车</text></g></g><g id="ProcessOnG1033"><path id="ProcessOnPath1034" d="M516.5 138.92233009708738L516.5 173.81553398058253L518.0 173.81553398058253L518.0 193.47266988657785" stroke="#323232" stroke-width="2.0" stroke-dasharray="none" fill="none" marker-end="url(#ProcessOnMarker1035)"/><g id="ProcessOnG1037" transform="matrix(1.0,0.0,0.0,1.0,516.5,158.82249999183261)"><path id="ProcessOnPath1038" d="M0 0H127.0V16.25H0Z" fill="#fff" transform="matrix(1.0,0.0,0.0,1.0,-63.5,0.0)"/><text id="ProcessOnText1039" fill="#000000" font-size="13" x="0.0" y="13.325" font-family="微软雅黑" font-weight="normal" font-style="normal" text-decoration="none" family="微软雅黑" text-anchor="middle" size="13">查看域名&amp;IP是否存在</text></g></g><g id="ProcessOnG1040" transform="matrix(1.0,0.0,0.0,1.0,646.5,205.85436893203882)" opacity="1.0"><path id="ProcessOnPath1041" d="M0.0 0.0L132.0 0.0L132.0 36.00000000000003L0.0 36.00000000000003Z" stroke="#323232" stroke-width="2.0" stroke-dasharray="none" opacity="1.0" fill="#ffffff"/><g id="ProcessOnG1042" transform="matrix(1.0,0.0,0.0,1.0,10.0,1.7500000000000142)"><text id="ProcessOnText1043" fill="#000000" font-size="13" x="55.0" y="13.325" font-family="微软雅黑" font-weight="normal" font-style="normal" text-decoration="none" family="微软雅黑" text-anchor="middle" size="13">直接访问这个域名I</text><text id="ProcessOnText1044" fill="#000000" font-size="13" x="55.0" y="29.575" font-family="微软雅黑" font-weight="normal" font-style="normal" text-decoration="none" family="微软雅黑" text-anchor="middle" size="13">P对应的服务器了</text></g></g><g id="ProcessOnG1045"><path id="ProcessOnPath1046" d="M583.5 223.85436893203882L615.0 223.85436893203882L615.0 223.85436893203882L631.2639320225002 223.85436893203882" stroke="#323232" stroke-width="2.0" stroke-dasharray="none" fill="none" marker-end="url(#ProcessOnMarker1047)"/><g id="ProcessOnG1049" transform="matrix(1.0,0.0,0.0,1.0,607.3819660112501,215.72936893203882)"><path id="ProcessOnPath1050" d="M0 0H13.0V16.25H0Z" fill="#fff" transform="matrix(1.0,0.0,0.0,1.0,-6.5,0.0)"/><text id="ProcessOnText1051" fill="#000000" font-size="13" x="0.0" y="13.325" font-family="微软雅黑" font-weight="normal" font-style="normal" text-decoration="none" family="微软雅黑" text-anchor="middle" size="13">有</text></g></g><g id="ProcessOnG1052" transform="matrix(1.0,0.0,0.0,1.0,527.0,334.0)" opacity="1.0"><path id="ProcessOnPath1053" d="M0.0 0.0L261.0 0.0L277.0 16.0L277.0 52.291262135922324L0.0 52.291262135922324L0.0 0.0Z" stroke="none" stroke-width="0.0" stroke-dasharray="none" opacity="1.0" fill="#ffffaa"/><path id="ProcessOnPath1054" d="M261.0 0.0L261.0 16.0L277.0 16.0Z" stroke="none" stroke-width="0.0" stroke-dasharray="none" opacity="1.0" fill="#cdcd78"/><path id="ProcessOnPath1055" d="M0.0 0.0L261.0 0.0L277.0 16.0L277.0 52.291262135922324L0.0 52.291262135922324L0.0 0.0Z" stroke="none" stroke-width="0.0" stroke-dasharray="none" opacity="1.0" fill="none"/><g id="ProcessOnG1056" transform="matrix(1.0,0.0,0.0,1.0,10.0,9.895631067961162)"><text id="ProcessOnText1057" fill="#000000" font-size="13" x="127.5" y="13.325" font-family="微软雅黑" font-weight="normal" font-style="normal" text-decoration="none" family="微软雅黑" text-anchor="middle" size="13">越高级的域名越靠后，必须要先找后面的域</text><text id="ProcessOnText1058" fill="#000000" font-size="13" x="127.5" y="29.575" font-family="微软雅黑" font-weight="normal" font-style="normal" text-decoration="none" family="微软雅黑" text-anchor="middle" size="13">名，然后才能进一步的找到整个域名</text></g></g><g id="ProcessOnG1059"><path id="ProcessOnPath1060" d="M452.5 223.85436893203882L408.875 223.85436893203882L408.875 178.0L380.4860679774998 178.0" stroke="#323232" stroke-width="2.0" stroke-dasharray="none" fill="none" marker-end="url(#ProcessOnMarker1061)"/><g id="ProcessOnG1063" transform="matrix(1.0,0.0,0.0,1.0,408.875,200.4202184547693)"><path id="ProcessOnPath1064" d="M0 0H13.0V16.25H0Z" fill="#fff" transform="matrix(1.0,0.0,0.0,1.0,-6.5,0.0)"/><text id="ProcessOnText1065" fill="#000000" font-size="13" x="0.0" y="13.325" font-family="微软雅黑" font-weight="normal" font-style="normal" text-decoration="none" family="微软雅黑" text-anchor="middle" size="13">无</text></g></g><g id="ProcessOnG1066" transform="matrix(1.0,0.0,0.0,1.0,234.25,164.70873786407768)" opacity="1.0"><path id="ProcessOnPath1067" d="M0.0 0.0L131.0 0.0L131.0 30.291262135922327L0.0 30.291262135922327Z" stroke="#323232" stroke-width="2.0" stroke-dasharray="none" opacity="1.0" fill="#ffffff"/><g id="ProcessOnG1068" transform="matrix(1.0,0.0,0.0,1.0,10.0,7.020631067961164)"><text id="ProcessOnText1069" fill="#000000" font-size="13" x="54.5" y="13.325" font-family="微软雅黑" font-weight="normal" font-style="normal" text-decoration="none" family="微软雅黑" text-anchor="middle" size="13">本地域名服务器</text></g></g><g id="ProcessOnG1070" transform="matrix(1.0,0.0,0.0,1.0,81.75,346.70873786407765)" opacity="1.0"><path id="ProcessOnPath1071" d="M0.0 0.0L131.0 0.0L131.0 30.291262135922327L0.0 30.291262135922327Z" stroke="#323232" stroke-width="2.0" stroke-dasharray="none" opacity="1.0" fill="#ffffff"/><g id="ProcessOnG1072" transform="matrix(1.0,0.0,0.0,1.0,10.0,7.020631067961164)"><text id="ProcessOnText1073" fill="#000000" font-size="13" x="54.5" y="13.325" font-family="微软雅黑" font-weight="normal" font-style="normal" text-decoration="none" family="微软雅黑" text-anchor="middle" size="13">顶级域名服务器IP</text></g></g><g id="ProcessOnG1074" transform="matrix(1.0,0.0,0.0,1.0,234.25,346.70873786407765)" opacity="1.0"><path id="ProcessOnPath1075" d="M0.0 0.0L131.0 0.0L131.0 30.291262135922327L0.0 30.291262135922327Z" stroke="#323232" stroke-width="2.0" stroke-dasharray="none" opacity="1.0" fill="#ffffff"/><g id="ProcessOnG1076" transform="matrix(1.0,0.0,0.0,1.0,10.0,7.020631067961164)"><text id="ProcessOnText1077" fill="#000000" font-size="13" x="54.5" y="13.325" font-family="微软雅黑" font-weight="normal" font-style="normal" text-decoration="none" family="微软雅黑" text-anchor="middle" size="13">二级域名服务器IP</text></g></g><g id="ProcessOnG1078" transform="matrix(1.0,0.0,0.0,1.0,387.25,346.70873786407765)" opacity="1.0"><path id="ProcessOnPath1079" d="M0.0 0.0L131.0 0.0L131.0 30.291262135922327L0.0 30.291262135922327Z" stroke="#323232" stroke-width="2.0" stroke-dasharray="none" opacity="1.0" fill="#ffffff"/><g id="ProcessOnG1080" transform="matrix(1.0,0.0,0.0,1.0,10.0,7.020631067961164)"><text id="ProcessOnText1081" fill="#000000" font-size="13" x="54.5" y="13.325" font-family="微软雅黑" font-weight="normal" font-style="normal" text-decoration="none" family="微软雅黑" text-anchor="middle" size="13">三级域名服务器IP</text></g></g><g id="ProcessOnG1082"><path id="ProcessOnPath1083" d="M299.75 195.0L299.75 270.8543689320388L147.25 270.8543689320388L147.25 331.4726698865779" stroke="#323232" stroke-width="2.0" stroke-dasharray="none" fill="none" marker-end="url(#ProcessOnMarker1084)"/></g><g id="ProcessOnG1086"><path id="ProcessOnPath1087" d="M299.75 195.0L299.75 270.8543689320388L452.75 270.8543689320388L452.75 331.4726698865779" stroke="#323232" stroke-width="2.0" stroke-dasharray="none" fill="none" marker-end="url(#ProcessOnMarker1088)"/></g><g id="ProcessOnG1090"><path id="ProcessOnPath1091" d="M299.75 195.0L299.75 270.8543689320388L299.75 270.8543689320388L299.75 331.4726698865779" stroke="#323232" stroke-width="2.0" stroke-dasharray="none" fill="none" marker-end="url(#ProcessOnMarker1092)"/><g id="ProcessOnG1094" transform="matrix(1.0,0.0,0.0,1.0,299.75,255.11133494328897)"><path id="ProcessOnPath1095" d="M0 0H249.0V16.25H0Z" fill="#fff" transform="matrix(1.0,0.0,0.0,1.0,-124.5,0.0)"/><text id="ProcessOnText1096" fill="#000000" font-size="13" x="0.0" y="13.325" font-family="微软雅黑" font-weight="normal" font-style="normal" text-decoration="none" family="微软雅黑" text-anchor="middle" size="13">依次发送域名,获取对应的各级域名服务器IP</text></g></g><g id="ProcessOnG1097" transform="matrix(1.0,0.0,0.0,1.0,66.0,334.0)" opacity="1.0"><path id="ProcessOnPath1098" d="M0.0 14.427184466019426C0.0 -4.809061488673142 29.0 -4.809061488673142 29.0 14.427184466019426C29.0 33.663430420712 0.0 33.663430420712 0.0 14.427184466019426Z" stroke="#323232" stroke-width="2.0" stroke-dasharray="none" opacity="1.0" fill="#ffffff"/><g id="ProcessOnG1099" transform="matrix(1.0,0.0,0.0,1.0,10.0,6.302184466019426)"><text id="ProcessOnText1100" fill="#000000" font-size="13" x="3.5" y="13.325" font-family="微软雅黑" font-weight="normal" font-style="normal" text-decoration="none" family="微软雅黑" text-anchor="middle" size="13">1</text></g></g><g id="ProcessOnG1101" transform="matrix(1.0,0.0,0.0,1.0,220.75,334.0)" opacity="1.0"><path id="ProcessOnPath1102" d="M0.0 14.427184466019426C0.0 -4.809061488673142 29.0 -4.809061488673142 29.0 14.427184466019426C29.0 33.663430420712 0.0 33.663430420712 0.0 14.427184466019426Z" stroke="#323232" stroke-width="2.0" stroke-dasharray="none" opacity="1.0" fill="#ffffff"/><g id="ProcessOnG1103" transform="matrix(1.0,0.0,0.0,1.0,10.0,6.302184466019426)"><text id="ProcessOnText1104" fill="#000000" font-size="13" x="3.5" y="13.325" font-family="微软雅黑" font-weight="normal" font-style="normal" text-decoration="none" family="微软雅黑" text-anchor="middle" size="13">2</text></g></g><g id="ProcessOnG1105" transform="matrix(1.0,0.0,0.0,1.0,375.0,334.0)" opacity="1.0"><path id="ProcessOnPath1106" d="M0.0 14.427184466019426C0.0 -4.809061488673142 29.0 -4.809061488673142 29.0 14.427184466019426C29.0 33.663430420712 0.0 33.663430420712 0.0 14.427184466019426Z" stroke="#323232" stroke-width="2.0" stroke-dasharray="none" opacity="1.0" fill="#ffffff"/><g id="ProcessOnG1107" transform="matrix(1.0,0.0,0.0,1.0,10.0,6.302184466019426)"><text id="ProcessOnText1108" fill="#000000" font-size="13" x="3.5" y="13.325" font-family="微软雅黑" font-weight="normal" font-style="normal" text-decoration="none" family="微软雅黑" text-anchor="middle" size="13">3</text></g></g><g id="ProcessOnG1109"><path id="ProcessOnPath1110" d="M299.75 164.70873786407768L299.75 110.01503505445731L436.4979963325232 110.01503505445731" stroke="#323232" stroke-width="2.0" stroke-dasharray="none" fill="none" marker-end="url(#ProcessOnMarker1111)"/><g id="ProcessOnG1113" transform="matrix(1.0,0.0,0.0,1.0,340.77714676145143,101.89003505445731)"><path id="ProcessOnPath1114" d="M0 0H77.0V16.25H0Z" fill="#fff" transform="matrix(1.0,0.0,0.0,1.0,-38.5,0.0)"/><text id="ProcessOnText1115" fill="#000000" font-size="13" x="0.0" y="13.325" font-family="微软雅黑" font-weight="normal" font-style="normal" text-decoration="none" family="微软雅黑" text-anchor="middle" size="13">反馈服务器IP</text></g></g><g id="ProcessOnG1116"><path id="ProcessOnPath1117" d="M516.5 73.29126213592232L516.5 90.96116504854369L516.5 90.96116504854369L516.5 93.39499998366527" stroke="#323232" stroke-width="2.0" stroke-dasharray="none" fill="none" marker-end="url(#ProcessOnMarker1118)"/></g><g id="ProcessOnG1120"><path id="ProcessOnPath1121" d="M582.0 123.77669902912622L637.0 123.77669902912622L637.0 123.77669902912622L676.7639320225002 123.77669902912622" stroke="#323232" stroke-width="2.0" stroke-dasharray="none" fill="none" marker-end="url(#ProcessOnMarker1122)"/><g id="ProcessOnG1124" transform="matrix(1.0,0.0,0.0,1.0,629.3819660112501,115.65169902912622)"><path id="ProcessOnPath1125" d="M0 0H26.0V16.250000000000014H0Z" fill="#fff" transform="matrix(1.0,0.0,0.0,1.0,-13.0,0.0)"/><text id="ProcessOnText1126" fill="#000000" font-size="13" x="0.0" y="13.325" font-family="微软雅黑" font-weight="normal" font-style="normal" text-decoration="none" family="微软雅黑" text-anchor="middle" size="13">访问</text></g></g><g id="ProcessOnG1127" transform="matrix(1.0,0.0,0.0,1.0,696.0,108.63106796116506)" opacity="1.0"><path id="ProcessOnPath1128" d="M0.0 0.0L131.0 0.0L131.0 30.291262135922327L0.0 30.291262135922327Z" stroke="#323232" stroke-width="2.0" stroke-dasharray="none" opacity="1.0" fill="#ffffff"/><g id="ProcessOnG1129" transform="matrix(1.0,0.0,0.0,1.0,10.0,7.020631067961164)"><text id="ProcessOnText1130" fill="#000000" font-size="13" x="54.5" y="13.325" font-family="微软雅黑" font-weight="normal" font-style="normal" text-decoration="none" family="微软雅黑" text-anchor="middle" size="13">服务器IP</text></g></g></g></g></svg>